<svg height="1024" width="1024" xmlns="http://www.w3.org/2000/svg" xmlns:xlink="http://www.w3.org/1999/xlink" version="1.1" x="0px" y="0px" viewBox="0 0 100 100"><g><path d="M82.9,30c-14.4-4.5-23,6.9-30.7,17c-4.6-6.2-9.5-12.6-16.6-16c-7.2-3.5-16.6-2.3-22.3,3.5c-9.5,9.7-12.7,28.8,2.6,34.9 c13.9,5.5,24.8-5.6,32.6-15.9c0.3,0.4,0.6,0.8,0.9,1.2c4.3,5.9,9,12,16,14.8c7.5,3,16.7,1.2,22-5C96.5,54.2,99,35.1,82.9,30z M27.5,64.6c-8.3,0-16.1-4.7-18.2-13c-0.7-2.6-0.7-5.4-0.2-8.1c0.5-2.6,2-3.9,4.3-5.3c4.5-2.7,10.6-3.4,15.6-1.9 c8.1,2.5,13.9,9.6,18.9,16.3C42.7,58.5,35.7,64.5,27.5,64.6z M87.6,61.3c-4.3,3-10.3,4-15.5,2.9C63.7,62.2,58,55,53.1,48.3 c-0.1-0.2-0.2-0.3-0.4-0.5c4.6-5.9,10.7-11.7,18.4-12.3c8.3-0.7,16.6,3.7,19.2,11.9C91.9,52.1,92,58.2,87.6,61.3z"></path></g></svg>